<svg xmlns="http://www.w3.org/2000/svg" xml:space="preserve" style="enable-background:new 0 0 256 256" viewBox="0 0 256 256"><style>.st1{fill:none;stroke:#FFF;stroke-width:5;stroke-miterlimit:10}</style><g id="Vrstva_1"><path d="M172.7 189.5v19.6l-.1.2-43.9 25.1h-.2l-43.9-25.1-.1-.2v-19.6M193.9 55l-65.1-37.2h-.5L63.1 55l-.1.2v89.5l.1.2 65.3 37.3h.2l65.3-37.3.1-.2V55.2l-.1-.2z" class="st1"/><path d="M188 179.9v-21.5c0-.2-.2-.3-.4-.2l-59 33.7h-.2l-59-33.7c-.2-.1-.4 0-.4.2v21.5l.1.2 59.3 33.9h.2l59.3-33.9.1-.2z" class="st1"/></g><g id="Vrstva_3"><path d="M90.5 127.1V74.4l.1-.2 37.7-21.9h.3l37.7 21.9.1.2v52.7" class="st1"/><path d="M105.5 86.2 128.3 73h.3l22.8 13.2" class="st1"/></g></svg>